{
.appVersion = "3151";
.formatVersion = 3;
DisplayStrings = (
xylophone,
"",
"fun for the
whole family

frimoh",
"hoho
rarity
curvature",
"/_corner.rightSerif  i",
"abcdefghijklmnopqrstuvwxyz

unmask 
the 
magic
tundra
route
pbor",
Q,
"12xoszv1
iw",
"12130
2020
o0b/two.001 t
13o13
1212
wd20q62026/six.004 900/six.003 
2/six.002 
302
omega 3
101 dalmatians
bluetooth 
360

2016hi6
2v2
23457/seven.001 q1
1723x
7xy272796
omega3",
"12345

05

/five.001 67890
350

",
"/zero.001",
45mm,
"/four.002 1/four.003 
/four.003 1
/four.003 0/four.003 141567890

1417
242
343
444
545
646
747
848
949
040
hao"
);
date = "2025-12-02 21:15:18 +0000";
familyName = "Flitwick 3";
fontMaster = (
{
id = m01;
metricValues = (
{
over = 16;
pos = 750;
},
{
over = 16;
pos = 700;
},
{
over = 16;
pos = 500;
},
{
over = -16;
},
{
over = -16;
pos = -50;
},
{
pos = 20;
}
);
name = Regular;
}
);
glyphs = (
{
glyphname = A;
kernLeft = A;
kernRight = A;
lastChange = "2026-01-02 20:21:54 +0000";
layers = (
{
backgroundImage = {
angle = 90;
imagePath = "Images/A_-Regular.tif";
locked = 1;
pos = (1407,-1568);
scale = (1.4,1.4);
};
hints = (
{
name = _corner.leftSerif;
origin = (0,11);
scale = (-0.8,-1);
type = Corner;
},
{
name = _corner.rightSerif;
options = 1;
origin = (0,12);
scale = (-0.8,-1);
type = Corner;
}
);
layerId = m01;
shapes = (
{
closed = 1;
nodes = (
(457,718,l),
(220,426,ls),
(24,185,o),
(-51,106,o),
(-17,-7,c),
(79,17,l),
(28,97,o),
(81,227,o),
(182,348,cs),
(403,612,l),
(405,612,l),
(399,0,l),
(462,0,l),
(471,718,l)
);
},
{
closed = 1;
nodes = (
(97,244,l),
(418,244,l),
(418,263,l),
(97,263,l)
);
}
);
width = 650;
}
);
unicode = (65,97);
},
{
glyphname = B;
kernLeft = B;
kernRight = B;
lastChange = "2025-12-31 01:48:54 +0000";
layers = (
{
backgroundImage = {
angle = -90;
imagePath = "../../../Desktop/Images/B_-Regular.tif";
locked = 1;
pos = (-340,2917);
scale = (0.8,0.8);
};
hints = (
{
name = _corner.rightSerif;
options = 1;
origin = (0,13);
type = Corner;
},
{
name = _corner.leftSerif;
origin = (0,14);
type = Corner;
}
);
layerId = m01;
shapes = (
{
closed = 1;
nodes = (
(176,0,ls),
(489,0,o),
(617,150,o),
(617,278,cs),
(617,393,o),
(511,416,o),
(411,416,c),
(550,452,o),
(596,535,o),
(596,600,cs),
(596,668,o),
(531,700,o),
(408,700,cs),
(272,700,l),
(17,0,l)
);
},
{
closed = 1;
nodes = (
(218,366,l),
(274,379,ls),
(302,385,o),
(369,401,o),
(398,401,cs),
(467,401,o),
(548,359,o),
(548,275,cs),
(548,175,o),
(488,19,o),
(205,19,cs),
(92,19,l)
);
},
{
closed = 1;
nodes = (
(334,685,l),
(414,685,ls),
(487,685,o),
(534,657,o),
(534,592,cs),
(534,558,o),
(517,452,o),
(377,420,cs),
(225,385,l)
);
}
);
width = 645;
}
);
metricLeft = H;
unicode = (66,98);
},
{
glyphname = C;
kernLeft = C;
kernRight = C;
lastChange = "2025-12-31 00:50:28 +0000";
layers = (
{
backgroundImage = {
angle = -90;
imagePath = "../../../Desktop/Images/Q_-Regular.tif";
pos = (-1424,1549);
scale = (0.88,0.88);
};
layerId = m01;
shapes = (
{
closed = 1;
nodes = (
(611,291,l),
(548,167,o),
(439,38,o),
(322,38,cs),
(165,38,o),
(130,180,o),
(130,305,cs),
(130,435,o),
(225,681,o),
(423,681,cs),
(501,681,o),
(584,626,o),
(560,514,c),
(572,514,l),
(612,634,l),
(570,676,o),
(527,710,o),
(448,710,cs),
(221,710,o),
(52,463,o),
(52,265,cs),
(52,107,o),
(141,-10,o),
(288,-10,cs),
(449,-10,o),
(561,134,o),
(631,291,c)
);
}
);
width = 662;
}
);
metricLeft = O;
unicode = (67,99);
},
{
glyphname = D;
kernLeft = D;
kernRight = D;
lastChange = "2025-12-31 01:02:10 +0000";
layers = (
{
hints = (
{
name = _corner.rightSerif;
options = 1;
origin = (0,2);
type = Corner;
},
{
name = _corner.leftSerif;
origin = (0,3);
type = Corner;
}
);
layerId = m01;
shapes = (
{
closed = 1;
nodes = (
(87,0,l),
(342,700,l),
(272,700,l),
(17,0,l)
);
},
{
closed = 1;
nodes = (
(312,684,l),
(415,684,ls),
(570,684,o),
(613,582,o),
(613,444,cs),
(613,274,o),
(450,16,o),
(196,16,cs),
(75,16,l),
(75,0,l),
(193,0,l),
(490,0,o),
(696,247,o),
(696,485,cs),
(696,643,o),
(552,700,o),
(459,700,cs),
(317,700,l)
);
}
);
width = 665;
}
);
metricLeft = H;
metricRight = O;
unicode = (68,100);
},
{
glyphname = E;
kernLeft = E;
kernRight = E;
lastChange = "2025-12-30 23:40:39 +0000";
layers = (
{
hints = (
{
name = _corner.rightSerif;
options = 1;
origin = (1,2);
scale = (0.8,0.7);
type = Corner;
},
{
name = _corner.leftSerif;
origin = (1,3);
scale = (0.8,0.7);
type = Corner;
}
);
layerId = m01;
shapes = (
{
closed = 1;
nodes = (
(375,0,l),
(528,203,l),
(510,203,l),
(495,186,ls),
(421,102,o),
(348,22,o),
(249,22,cs),
(56,22,l),
(56,0,l)
);
},
{
closed = 1;
nodes = (
(70,0,l),
(325,700,l),
(255,700,l),
(0,0,l)
);
},
{
closed = 1;
nodes = (
(290,452,o),
(354,452,o),
(389,452,cs),
(414,452,o),
(424,430,o),
(410,379,c),
(425,379,l),
(487,539,l),
(470,539,l),
(450,494,o),
(422,470,o),
(393,470,cs),
(354,470,o),
(299,467,o),
(231,458,c),
(231,439,l)
);
},
{
closed = 1;
nodes = (
(419,683,ls),
(502,683,o),
(537,654,o),
(575,585,c),
(589,585,l),
(555,700,l),
(281,700,l),
(281,683,l)
);
}
);
width = 570;
}
);
metricLeft = H;
unicode = (69,101);
},
{
glyphname = F;
kernLeft = F;
kernRight = F;
lastChange = "2025-12-30 23:40:27 +0000";
layers = (
{
hints = (
{
name = _corner.rightSerif;
options = 1;
origin = (0,0);
scale = (0.8,0.7);
type = Corner;
},
{
name = _corner.rightSerif;
options = 1;
origin = (0,2);
scale = (0.8,0.7);
type = Corner;
},
{
name = _corner.leftSerif;
origin = (0,3);
scale = (0.8,0.7);
type = Corner;
}
);
layerId = m01;
shapes = (
{
closed = 1;
nodes = (
(70,0,l),
(325,700,l),
(255,700,l),
(0,0,l)
);
},
{
closed = 1;
nodes = (
(439,683,ls),
(522,683,o),
(557,654,o),
(595,585,c),
(609,585,l),
(575,700,l),
(301,700,l),
(301,683,l)
);
},
{
closed = 1;
nodes = (
(270,442,o),
(334,442,o),
(369,442,cs),
(394,442,o),
(404,420,o),
(390,369,c),
(405,369,l),
(467,529,l),
(450,529,l),
(430,484,o),
(402,460,o),
(373,460,cs),
(334,460,o),
(279,457,o),
(211,448,c),
(211,429,l)
);
}
);
width = 510;
}
);
metricLeft = H;
unicode = (70,102);
},
{
glyphname = G;
kernLeft = G;
kernRight = G;
lastChange = "2026-01-02 20:21:05 +0000";
layers = (
{
backgroundImage = {
angle = 90;
imagePath = "Images/G_-Regular.tif";
locked = 1;
pos = (1554,-2009);
scale = (1.4,1.4);
};
hints = (
{
name = _corner.leftSerif;
origin = (0,1);
scale = (0.65,1);
type = Corner;
},
{
name = _corner.rightSerif;
options = 1;
origin = (0,2);
scale = (2,1);
type = Corner;
}
);
layerId = m01;
shapes = (
{
closed = 1;
nodes = (
(555,105,l),
(622,291,l),
(562,291,l),
(496,105,ls),
(476,48,o),
(427,15,o),
(329,15,cs),
(162,15,o),
(140,180,o),
(140,305,cs),
(140,435,o),
(210,681,o),
(438,681,cs),
(526,681,o),
(604,636,o),
(580,524,c),
(592,524,l),
(632,644,l),
(590,686,o),
(532,710,o),
(463,710,cs),
(206,710,o),
(62,463,o),
(62,265,cs),
(62,107,o),
(146,-10,o),
(323,-10,cs),
(442,-10,o),
(520,29,o),
(575,84,c)
);
}
);
width = 687;
}
);
metricLeft = O;
unicode = (71,103);
},
{
glyphname = H;
kernLeft = H;
kernRight = H;
lastChange = "2025-12-30 23:25:47 +0000";
layers = (
{
backgroundImage = {
angle = -90;
imagePath = "../../../Downloads/IMG_9975.HEIC";
locked = 1;
pos = (-285,2959);
scale = (0.8,0.8);
};
layerId = m01;
shapes = (
{
alignment = -1;
pos = (-19,0);
ref = _part.stem;
},
{
alignment = -1;
pos = (359,2);
ref = _part.stem;
},
{
closed = 1;
nodes = (
(309,408,o),
(423,434,o),
(535,446,c),
(543,440,l),
(561,473,l),
(424,459,o),
(286,421,o),
(202,356,c),
(192,367,l),
(182,315,l)
);
}
);
width = 630;
}
);
unicode = (72,104);
},
{
glyphname = I;
kernLeft = I;
kernRight = I;
lastChange = "2025-12-31 00:49:56 +0000";
layers = (
{
hints = (
{
name = _corner.rightSerif;
options = 1;
origin = (0,0);
scale = (1.25,0.7);
type = Corner;
},
{
name = _corner.leftSerif;
origin = (0,1);
scale = (1.25,0.7);
type = Corner;
},
{
name = _corner.rightSerif;
options = 1;
origin = (0,2);
scale = (1.25,0.7);
type = Corner;
},
{
name = _corner.leftSerif;
origin = (0,3);
scale = (1.25,0.7);
type = Corner;
}
);
layerId = m01;
shapes = (
{
closed = 1;
nodes = (
(98,0,l),
(353,700,l),
(289,700,l),
(34,0,l)
);
}
);
width = 315;
}
);
metricLeft = H;
metricRight = H;
unicode = (73,105);
},
{
glyphname = J;
kernLeft = J;
kernRight = J;
lastChange = "2025-12-31 00:50:04 +0000";
layers = (
{
hints = (
{
name = _corner.leftSerif;
origin = (0,13);
scale = (0.8,0.7);
type = Corner;
},
{
name = _corner.rightSerif;
options = 1;
origin = (0,14);
scale = (0.8,0.7);
type = Corner;
}
);
layerId = m01;
shapes = (
{
closed = 1;
nodes = (
(233,49,o),
(196,4,o),
(123,4,cs),
(78,4,o),
(40,54,o),
(47,104,c),
(-22,76,l),
(-26,37,o),
(11,-10,o),
(115,-10,cs),
(189,-10,o),
(304,49,o),
(357,195,cs),
(539,700,l),
(469,700,l),
(272,157,ls)
);
}
);
width = 462;
}
);
metricRight = I;
unicode = (74,106);
},
{
glyphname = K;
kernLeft = K;
kernRight = K;
lastChange = "2025-12-31 00:52:25 +0000";
layers = (
{
hints = (
{
name = _corner.rightSerif;
options = 1;
origin = (0,0);
scale = (0.8,0.7);
type = Corner;
},
{
name = _corner.leftSerif;
origin = (0,15);
scale = (0.8,0.7);
type = Corner;
},
{
name = _corner.rightSerif;
options = 1;
origin = (0,16);
scale = (0.8,0.7);
type = Corner;
},
{
name = _corner.leftSerif;
origin = (0,17);
scale = (0.8,0.7);
type = Corner;
}
);
layerId = m01;
shapes = (
{
closed = 1;
nodes = (
(70,0,l),
(176,289,l),
(337,362,ls),
(629,495,o),
(659,621,o),
(617,707,c),
(521,683,l),
(545,656,o),
(555,642,o),
(555,590,cs),
(555,499,o),
(454,440,o),
(334,383,cs),
(190,315,l),
(184,315,l),
(325,700,l),
(255,700,l),
(0,0,l)
);
},
{
closed = 1;
nodes = (
(301,350,l),
(287,126,o),
(432,12,o),
(554,-2,c),
(555,13,l),
(449,31,o),
(338,163,o),
(370,385,c)
);
}
);
width = 680;
}
);
metricLeft = H;
unicode = (75,107);
},
{
glyphname = L;
kernLeft = L;
kernRight = L;
lastChange = "2025-12-31 00:49:48 +0000";
layers = (
{
hints = (
{
name = _corner.leftSerif;
origin = (1,1);
scale = (0.8,0.7);
type = Corner;
},
{
name = _corner.rightSerif;
options = 1;
origin = (1,2);
scale = (0.8,0.7);
type = Corner;
},
{
name = _corner.leftSerif;
origin = (1,3);
scale = (0.8,0.7);
type = Corner;
}
);
layerId = m01;
shapes = (
{
closed = 1;
nodes = (
(365,0,l),
(518,203,l),
(500,203,l),
(485,186,ls),
(411,102,o),
(338,19,o),
(239,19,cs),
(66,19,l),
(66,0,l)
);
},
{
closed = 1;
nodes = (
(70,0,l),
(325,700,l),
(255,700,l),
(0,0,l)
);
}
);
width = 560;
}
);
metricLeft = H;
unicode = (76,108);
},
{
glyphname = M;
kernLeft = M;
kernRight = M;
lastChange = "2026-01-02 07:23:58 +0000";
layers = (
{
backgroundImage = {
angle = 90;
imagePath = "../../../Desktop/Images/M_-Regular.tif";
locked = 1;
pos = (1991,-1107);
scale = (0.8,0.8);
};
hints = (
{
name = _corner.rightSerif;
options = 1;
origin = (0,25);
scale = (0.8,0.7);
type = Corner;
},
{
name = _corner.leftSerif;
origin = (0,24);
scale = (0.8,0.7);
type = Corner;
},
{
name = _corner.rightSerif;
options = 1;
origin = (0,9);
scale = (0.8,0.7);
type = Corner;
},
{
name = _corner.leftSerif;
origin = (0,10);
scale = (0.8,0.7);
type = Corner;
},
{
name = _corner.leftSerif;
origin = (0,8);
scale = (0.8,0.7);
type = Corner;
}
);
layerId = m01;
shapes = (
{
closed = 1;
nodes = (
(289,547,o),
(328,401,o),
(356,262,c),
(366,262,l),
(424,382,o),
(558,526,o),
(642,603,c),
(652,603,l),
(435,0,l),
(498,0,l),
(753,700,l),
(731,700,l),
(659,668,o),
(488,494,o),
(398,355,c),
(392,355,l),
(377,466,o),
(324,646,o),
(265,712,c),
(182,678,l),
(182,669,l),
(228,666,o),
(237,643,o),
(216,587,cs),
(-4,0,l),
(24,0,l),
(252,610,l),
(255,611,l)
);
},
{
closed = 0;
nodes = (
(205,612,l)
);
}
);
width = 681;
}
);
metricLeft = H;
metricRight = H;
unicode = (77,109);
},
{
glyphname = N;
kernLeft = N;
kernRight = N;
lastChange = "2026-01-02 21:02:38 +0000";
layers = (
{
hints = (
{
name = _corner.rightSerif;
options = 1;
origin = (0,0);
scale = (0.8,0.7);
type = Corner;
},
{
name = _corner.leftSerif;
origin = (0,26);
scale = (0.8,0.7);
type = Corner;
},
{
name = _corner.rightSerif;
options = 1;
origin = (0,20);
scale = (0.8,0.7);
type = Corner;
},
{
name = _corner.leftSerif;
origin = (0,19);
scale = (0.8,0.7);
type = Corner;
}
);
layerId = m01;
shapes = (
{
closed = 1;
nodes = (
(438,0,l),
(611,480,ls),
(631,537,o),
(653,641,o),
(602,707,c),
(527,683,l),
(583,659,o),
(618,565,o),
(584,470,cs),
(509,259,l),
(502,257,l),
(479,361,o),
(345,674,o),
(265,709,c),
(182,678,l),
(182,663,l),
(228,660,o),
(236,643,o),
(216,587,cs),
(2,0,l),
(31,0,l),
(252,618,l),
(261,620,l),
(317,574,o),
(429,290,o),
(467,143,c),
(412,0,l)
);
}
);
width = 621;
}
);
metricLeft = H;
metricRight = H;
unicode = (78,110);
},
{
glyphname = O;
kernLeft = O;
kernRight = O;
lastChange = "2026-01-02 22:29:54 +0000";
layers = (
{
backgroundImage = {
angle = -89;
imagePath = "../../../Downloads/IMG_9975.HEIC";
locked = 1;
pos = (-421,1301);
scale = (0.8,0.8);
};
layerId = m01;
shapes = (
{
closed = 1;
nodes = (
(554,-10,o),
(703,237,o),
(703,435,cs),
(703,593,o),
(604,710,o),
(467,710,cs),
(210,710,o),
(61,463,o),
(61,265,cs),
(61,107,o),
(150,-10,o),
(297,-10,cs)
);
},
{
closed = 1;
nodes = (
(181,13,o),
(135,180,o),
(135,305,cs),
(135,435,o),
(214,686,o),
(442,686,cs),
(573,686,o),
(629,530,o),
(629,405,cs),
(629,275,o),
(550,13,o),
(322,13,cs)
);
}
);
width = 691;
}
);
unicode = (79,111);
},
{
glyphname = P;
kernLeft = P;
kernRight = P;
lastChange = "2025-12-31 00:51:37 +0000";
layers = (
{
hints = (
{
name = _corner.rightSerif;
options = 1;
origin = (1,0);
type = Corner;
},
{
name = _corner.rightSerif;
options = 1;
origin = (1,2);
type = Corner;
},
{
name = _corner.leftSerif;
origin = (1,3);
type = Corner;
}
);
layerId = m01;
shapes = (
{
closed = 1;
nodes = (
(294,684,l),
(399,684,ls),
(479,684,o),
(539,625,o),
(539,560,cs),
(539,500,o),
(483,345,o),
(239,303,cs),
(170,291,l),
(161,271,l),
(239,286,ls),
(524,341,o),
(619,482,o),
(619,570,cs),
(619,668,o),
(511,700,o),
(414,700,cs),
(294,700,l)
);
},
{
closed = 1;
nodes = (
(87,0,l),
(342,700,l),
(272,700,l),
(17,0,l)
);
}
);
width = 547;
}
);
metricLeft = H;
unicode = (80,112);
},
{
glyphname = Q;
kernLeft = Q;
kernRight = Q;
lastChange = "2026-01-02 07:35:19 +0000";
layers = (
{
backgroundImage = {
angle = -90;
imagePath = "../../../Desktop/Images/Q_-Regular.tif";
pos = (-1129,2377);
scale = (0.88,0.88);
};
layerId = m01;
shapes = (
{
closed = 1;
nodes = (
(242,-24,o),
(446,-167,o),
(560,-137,c),
(560,-124,l),
(452,-151,o),
(281,-13,o),
(359,222,c),
(281,181,l)
);
},
{
closed = 1;
nodes = (
(556,-10,o),
(711,247,o),
(711,445,cs),
(711,603,o),
(616,710,o),
(469,710,cs),
(212,710,o),
(57,453,o),
(57,255,cs),
(57,97,o),
(152,-10,o),
(299,-10,cs)
);
},
{
closed = 1;
nodes = (
(167,18,o),
(131,170,o),
(131,295,cs),
(131,425,o),
(216,681,o),
(444,681,cs),
(601,681,o),
(637,540,o),
(637,415,cs),
(637,285,o),
(552,18,o),
(324,18,cs)
);
}
);
width = 728;
}
);
metricLeft = O;
metricRight = O;
unicode = (81,113);
},
{
glyphname = R;
kernLeft = R;
kernRight = R;
lastChange = "2025-12-31 00:58:36 +0000";
layers = (
{
hints = (
{
name = _corner.rightSerif;
options = 1;
origin = (0,0);
type = Corner;
},
{
name = _corner.rightSerif;
options = 1;
origin = (0,2);
type = Corner;
},
{
name = _corner.leftSerif;
origin = (0,3);
type = Corner;
}
);
layerId = m01;
shapes = (
{
closed = 1;
nodes = (
(87,0,l),
(342,700,l),
(272,700,l),
(17,0,l)
);
},
{
closed = 1;
nodes = (
(294,684,l),
(399,684,ls),
(469,684,o),
(517,641,o),
(517,576,cs),
(517,521,o),
(514,405,o),
(265,353,cs),
(170,333,l),
(165,315,l),
(266,337,ls),
(502,388,o),
(589,503,o),
(589,586,cs),
(589,674,o),
(486,700,o),
(404,700,cs),
(294,700,l)
);
},
{
closed = 1;
nodes = (
(298,355,l),
(334,101,o),
(449,12,o),
(571,-2,c),
(572,13,l),
(466,31,o),
(385,125,o),
(367,377,c)
);
}
);
width = 677;
}
);
metricLeft = H;
unicode = (82,114);
},
{
glyphname = S;
kernLeft = S;
kernRight = S;
lastChange = "2026-01-02 20:58:21 +0000";
layers = (
{
backgroundImage = {
angle = -90;
imagePath = "../../../Desktop/Images/S_-Regular.tif";
locked = 1;
pos = (-1190,1378);
scale = (0.88,0.88);
};
layerId = m01;
shapes = (
{
closed = 1;
nodes = (
(399,-13,o),
(507,80,o),
(507,232,cs),
(507,372,o),
(218,446,o),
(218,555,cs),
(218,633,o),
(261,695,o),
(360,695,cs),
(434,695,o),
(524,623,o),
(488,505,c),
(498,505,l),
(541,624,l),
(515,659,o),
(479,713,o),
(371,713,cs),
(256,713,o),
(167,644,o),
(167,539,cs),
(167,352,o),
(449,313,o),
(449,168,cs),
(449,69,o),
(353,4,o),
(258,4,cs),
(179,4,o),
(66,53,o),
(66,184,cs),
(66,237,o),
(80,307,o),
(103,374,c),
(91,374,l),
(18,185,l),
(16,108,o),
(101,-13,o),
(245,-13,cs)
);
}
);
width = 560;
}
);
unicode = (83,115);
},
{
glyphname = T;
kernLeft = T;
kernRight = T;
lastChange = "2026-01-02 20:58:47 +0000";
layers = (
{
hints = (
{
name = _corner.rightSerif;
options = 1;
origin = (2,0);
type = Corner;
},
{
name = _corner.leftSerif;
origin = (2,3);
type = Corner;
}
);
layerId = m01;
shapes = (
{
closed = 1;
nodes = (
(589,684,ls),
(652,684,o),
(672,637,o),
(702,572,c),
(724,572,l),
(675,710,l),
(664,704,ls),
(660,702,o),
(651,700,o),
(637,700,cs),
(489,700,l),
(479,684,l)
);
},
{
closed = 1;
nodes = (
(446,700,l),
(301,700,l),
(288,700,o),
(274,701,o),
(267,705,cs),
(258,710,l),
(137,572,l),
(161,572,l),
(225,637,o),
(267,684,o),
(331,684,cs),
(446,684,l)
);
},
{
closed = 1;
nodes = (
(255,0,l),
(510,700,l),
(440,700,l),
(185,0,l)
);
}
);
width = 630;
}
);
unicode = (84,116);
},
{
glyphname = U;
kernLeft = U;
kernRight = U;
lastChange = "2026-01-01 09:42:49 +0000";
layers = (
{
hints = (
{
name = _corner.leftSerif;
origin = (0,3);
scale = (0.8,0.7);
type = Corner;
},
{
name = _corner.rightSerif;
options = 1;
origin = (0,4);
scale = (0.8,0.7);
type = Corner;
},
{
name = _corner.leftSerif;
origin = (0,12);
scale = (0.8,0.7);
type = Corner;
},
{
name = _corner.rightSerif;
options = 1;
origin = (0,13);
scale = (0.8,0.7);
type = Corner;
}
);
layerId = m01;
shapes = (
{
closed = 1;
nodes = (
(412,-10,o),
(511,103,o),
(561,243,cs),
(725,700,l),
(693,700,l),
(521,230,ls),
(480,118,o),
(391,12,o),
(292,12,cs),
(153,12,o),
(111,112,o),
(181,304,cs),
(325,700,l),
(256,700,l),
(98,266,ls),
(48,129,o),
(115,-10,o),
(266,-10,cs)
);
}
);
width = 650;
}
);
unicode = (85,117);
},
{
glyphname = V;
kernLeft = V;
kernRight = V;
lastChange = "2026-01-02 20:58:39 +0000";
layers = (
{
hints = (
{
name = _corner.leftSerif;
origin = (0,11);
scale = (0.8,1);
type = Corner;
},
{
name = _corner.rightSerif;
options = 1;
origin = (0,12);
scale = (0.8,1);
type = Corner;
}
);
layerId = m01;
shapes = (
{
closed = 1;
nodes = (
(256,-18,l),
(493,274,ls),
(689,515,o),
(764,594,o),
(730,707,c),
(634,683,l),
(685,603,o),
(636,474,o),
(535,353,cs),
(314,88,l),
(308,88,l),
(314,700,l),
(251,700,l),
(242,-18,l)
);
}
);
width = 650;
}
);
unicode = (86,118);
},
{
glyphname = W;
kernLeft = W;
kernRight = W;
lastChange = "2025-12-31 03:30:50 +0000";
layers = (
{
backgroundImage = {
angle = -90;
imagePath = "../../../Desktop/Images/W_-Regular.tif";
locked = 1;
pos = (-173,2149);
scale = (0.8,0.8);
};
hints = (
{
name = _corner.leftSerif;
origin = (0,30);
scale = (0.8,1);
type = Corner;
},
{
name = _corner.rightSerif;
options = 1;
origin = (0,31);
scale = (0.8,1);
type = Corner;
}
);
layerId = m01;
shapes = (
{
closed = 1;
nodes = (
(288,-18,l),
(534,344,l),
(541,344,l),
(576,-18,l),
(581,-18,l),
(826,319,ls),
(931,463,o),
(946,594,o),
(912,707,c),
(826,683,l),
(867,593,o),
(913,475,o),
(806,328,cs),
(640,100,l),
(631,100,l),
(606,331,ls),
(603,359,o),
(622,394,o),
(669,397,c),
(669,412,l),
(477,412,l),
(477,397,l),
(496,396,o),
(518,387,o),
(518,374,cs),
(518,359,o),
(499,331,o),
(490,317,cs),
(340,99,l),
(334,99,l),
(304,700,l),
(237,700,l),
(284,-18,l)
);
}
);
width = 900;
}
);
unicode = (87,119);
},
{
glyphname = X;
kernLeft = X;
kernRight = X;
lastChange = "2026-01-01 09:45:01 +0000";
layers = (
{
backgroundImage = {
angle = -90;
imagePath = "../../../Desktop/Images/X_-Regular.tif";
locked = 1;
pos = (-333,2041);
scale = (0.8,0.8);
};
hints = (
{
name = _corner.rightSerif;
options = 1;
origin = (0,0);
scale = (0.8,1);
type = Corner;
},
{
name = _corner.leftSerif;
origin = (0,1);
type = Corner;
},
{
name = _corner.rightSerif;
options = 1;
origin = (0,2);
scale = (0.8,1);
type = Corner;
},
{
name = _corner.leftSerif;
origin = (0,3);
type = Corner;
}
);
layerId = m01;
shapes = (
{
closed = 1;
nodes = (
(519,0,l),
(304,700,l),
(239,700,l),
(454,0,l)
);
},
{
closed = 1;
nodes = (
(58,151,o),
(90,298,o),
(334,415,c),
(334,430,l),
(94,317,o),
(-32,142,o),
(-6,-22,c),
(90,12,l)
);
},
{
closed = 1;
nodes = (
(563,643,o),
(569,618,o),
(569,595,cs),
(569,541,o),
(505,504,o),
(367,445,c),
(371,429,l),
(488,483,o),
(698,562,o),
(643,707,c),
(547,673,l)
);
}
);
width = 700;
}
);
unicode = (88,120);
},
{
glyphname = Y;
kernLeft = Y;
kernRight = Y;
lastChange = "2026-01-02 20:54:16 +0000";
layers = (
{
backgroundImage = {
angle = 90;
imagePath = "Images/Y_-Regular.tif";
locked = 1;
pos = (2471,-449);
scale = (0.84,0.84);
};
hints = (
{
name = _corner.rightSerif;
options = 1;
origin = (0,0);
type = Corner;
},
{
name = _corner.leftSerif;
origin = (0,12);
type = Corner;
},
{
name = _corner.rightSerif;
options = 1;
origin = (0,13);
scale = (0.8,1);
type = Corner;
},
{
name = _corner.leftSerif;
origin = (0,15);
type = Corner;
}
);
layerId = m01;
shapes = (
{
closed = 1;
nodes = (
(316,0,l),
(409,243,l),
(574,388,ls),
(659,463,o),
(767,622,o),
(742,707,c),
(643,683,l),
(667,595,o),
(667,496,o),
(544,386,cs),
(415,271,l),
(406,271,l),
(300,700,l),
(233,700,l),
(341,252,l),
(248,0,l)
);
}
);
width = 650;
}
);
unicode = (89,121);
},
{
glyphname = Z;
kernLeft = Z;
kernRight = Z;
lastChange = "2025-12-31 00:42:06 +0000";
layers = (
{
layerId = m01;
shapes = (
{
closed = 1;
nodes = (
(81,0,l),
(94,0,l),
(86,21,l),
(666,694,l),
(663,700,l),
(594,700,l),
(547,700,l),
(570,676,l),
(-24,0,l)
);
},
{
closed = 1;
nodes = (
(292,0,ls),
(409,0,o),
(524,25,o),
(578,68,c),
(524,124,l),
(462,54,o),
(359,15,o),
(285,15,cs),
(79,15,l),
(79,0,l)
);
},
{
closed = 1;
nodes = (
(590,700,l),
(331,700,l),
(303,700,o),
(280,711,o),
(273,720,c),
(130,546,l),
(153,546,l),
(218,625,o),
(287,680,o),
(362,680,cs),
(590,681,l)
);
}
);
width = 660;
}
);
unicode = (90,122);
},
{
glyphname = J.100;
kernLeft = J;
kernRight = J;
lastChange = "2025-12-30 05:58:52 +0000";
layers = (
{
hints = (
{
name = _corner.leftSerif;
origin = (0,13);
scale = (1.25,1);
type = Corner;
},
{
name = _corner.rightSerif;
options = 1;
origin = (0,14);
scale = (1.25,1);
type = Corner;
}
);
layerId = m01;
shapes = (
{
closed = 1;
nodes = (
(185,-53,o),
(143,-94,o),
(75,-94,cs),
(26,-94,o),
(-1,-28,o),
(-7,8,c),
(-90,-26,l),
(-74,-65,o),
(-37,-112,o),
(67,-112,cs),
(141,-112,o),
(244,-87,o),
(298,62,cs),
(529,700,l),
(459,700,l),
(224,55,ls)
);
}
);
width = 480;
}
);
},
{
glyphname = zero;
kernLeft = "0";
kernRight = "0";
lastChange = "2026-01-02 22:20:31 +0000";
layers = (
{
layerId = m01;
shapes = (
{
closed = 1;
nodes = (
(460,-10,o),
(587,297,o),
(587,495,cs),
(587,648,o),
(480,710,o),
(403,710,cs),
(176,710,o),
(49,403,o),
(49,205,cs),
(49,52,o),
(146,-10,o),
(223,-10,cs)
);
},
{
closed = 1;
nodes = (
(147,18,o),
(121,120,o),
(121,245,cs),
(121,375,o),
(180,681,o),
(378,681,cs),
(479,681,o),
(515,580,o),
(515,455,cs),
(515,325,o),
(456,18,o),
(248,18,cs)
);
}
);
width = 563;
}
);
metricLeft = O;
metricRight = O;
unicode = 48;
},
{
glyphname = one;
kernLeft = "1";
kernRight = "1";
lastChange = "2026-01-02 22:29:23 +0000";
layers = (
{
backgroundImage = {
angle = 90;
imagePath = "Images/one-Regular.tif";
pos = (4492,-2974);
scale = (1.3,1.3);
};
hints = (
{
name = _corner.rightSerif;
options = 1;
origin = (0,0);
scale = (1.5,0.7);
type = Corner;
},
{
name = _corner.leftSerif;
origin = (0,16);
scale = (1.5,0.7);
type = Corner;
}
);
layerId = m01;
shapes = (
{
closed = 1;
nodes = (
(158,0,l),
(420,718,l),
(410,718,l),
(299,608,ls),
(271,580,o),
(228,572,o),
(199,579,c),
(161,512,l),
(229,524,o),
(268,557,o),
(310,603,cs),
(331,626,l),
(333,623,l),
(316,597,o),
(303,566,o),
(282,510,cs),
(94,0,l)
);
}
);
width = 394;
}
);
metricRight = I;
unicode = 49;
},
{
glyphname = two;
kernLeft = "2";
kernRight = "2";
lastChange = "2026-01-02 09:34:55 +0000";
layers = (
{
backgroundImage = {
angle = 90;
imagePath = "Images/one-Regular.tif";
pos = (3942,-2199);
scale = (1.3,1.3);
};
layerId = m01;
shapes = (
{
closed = 1;
nodes = (
(483,131,l),
(468,131,l),
(434,75,o),
(388,48,o),
(343,48,cs),
(48,48,l),
(45,55,l),
(128,101,o),
(555,368,o),
(555,588,cs),
(555,669,o),
(485,710,o),
(377,710,cs),
(242,710,o),
(132,573,o),
(130,461,c),
(203,514,l),
(191,585,o),
(249,691,o),
(350,691,cs),
(448,691,o),
(474,638,o),
(474,573,cs),
(474,342,o),
(51,71,o),
(-57,16,c),
(-47,0,l),
(411,0,l)
);
}
);
width = 560;
}
);
unicode = 50;
},
{
glyphname = three;
kernLeft = "3";
kernRight = "3";
lastChange = "2026-01-02 09:35:32 +0000";
layers = (
{
backgroundImage = {
angle = 90;
imagePath = "Images/one-Regular.tif";
locked = 1;
pos = (3269,-2964);
scale = (1.3,1.3);
};
layerId = m01;
shapes = (
{
closed = 1;
nodes = (
(246,392,o),
(266,394,o),
(286,394,cs),
(350,394,o),
(424,339,o),
(424,233,cs),
(424,87,o),
(308,5,o),
(222,5,cs),
(137,5,o),
(69,69,o),
(68,152,cs),
(68,196,o),
(90,248,o),
(132,293,c),
(27,241,l),
(14,217,o),
(7,183,o),
(7,146,cs),
(7,58,o),
(102,-15,o),
(207,-15,cs),
(385,-15,o),
(498,101,o),
(498,257,cs),
(498,328,o),
(435,410,o),
(346,410,c),
(346,414,l),
(426,437,o),
(520,474,o),
(520,593,cs),
(520,638,o),
(469,710,o),
(361,710,cs),
(243,710,o),
(154,583,o),
(162,481,c),
(232,531,l),
(203,602,o),
(249,693,o),
(345,693,cs),
(413,693,o),
(460,639,o),
(460,573,cs),
(460,474,o),
(364,431,o),
(232,397,c),
(235,389,l)
);
}
);
width = 533;
}
);
unicode = 51;
},
{
glyphname = four;
kernLeft = "4";
kernRight = "4";
lastChange = "2026-01-02 22:30:53 +0000";
layers = (
{
hints = (
{
name = _corner.rightSerif;
options = 1;
origin = (0,0);
scale = (1.5,0.7);
type = Corner;
},
{
name = _corner.leftSerif;
origin = (0,3);
scale = (1.5,0.7);
type = Corner;
}
);
layerId = m01;
shapes = (
{
closed = 1;
nodes = (
(320,0,l),
(487,413,l),
(417,413,l),
(250,0,l)
);
},
{
closed = 1;
nodes = (
(472,690,l),
(515,569,o),
(235,303,o),
(8,225,c),
(8,216,l),
(172,216,l),
(164,270,l),
(157,279,l),
(273,336,o),
(584,592,o),
(550,726,c)
);
},
{
closed = 1;
nodes = (
(8,216,l),
(508,216,l),
(530,272,l),
(111,272,l)
);
}
);
width = 555;
}
);
unicode = 52;
},
{
glyphname = five;
kernLeft = "5";
kernRight = "5";
lastChange = "2026-01-02 22:20:16 +0000";
layers = (
{
layerId = m01;
shapes = (
{
closed = 1;
nodes = (
(148,382,o),
(196,434,o),
(276,434,cs),
(340,434,o),
(424,379,o),
(424,233,cs),
(424,87,o),
(308,5,o),
(222,5,cs),
(137,5,o),
(69,69,o),
(68,152,cs),
(68,196,o),
(90,248,o),
(132,293,c),
(27,241,l),
(14,217,o),
(7,183,o),
(7,146,cs),
(7,58,o),
(102,-15,o),
(207,-15,cs),
(385,-15,o),
(498,111,o),
(498,267,cs),
(498,378,o),
(432,450,o),
(296,450,cs),
(200,450,o),
(164,406,o),
(127,376,c),
(137,371,l)
);
},
{
closed = 1;
nodes = (
(584,720,l),
(577,720,l),
(559,705,o),
(549,700,o),
(494,700,cs),
(282,700,l),
(276,695,l),
(127,376,l),
(168,406,l),
(160,414,l),
(272,651,l),
(547,651,l)
);
}
);
width = 533;
}
);
unicode = 53;
},
{
glyphname = six;
kernLeft = "6";
kernRight = "6";
lastChange = "2026-01-02 09:21:40 +0000";
layers = (
{
backgroundImage = {
angle = 90;
imagePath = "Images/one-Regular.tif";
locked = 1;
pos = (3952,-2199);
scale = (1.3,1.3);
};
layerId = m01;
shapes = (
{
closed = 1;
nodes = (
(430,-10,o),
(517,158,o),
(517,301,cs),
(517,431,o),
(400,510,o),
(313,510,cs),
(269,510,o),
(231,500,o),
(199,482,c),
(191,487,l),
(238,552,o),
(366,703,o),
(527,683,c),
(537,700,l),
(339,730,o),
(49,510,o),
(49,199,cs),
(49,69,o),
(156,-10,o),
(243,-10,cs)
);
},
{
closed = 1;
nodes = (
(111,322,o),
(149,493,o),
(302,493,cs),
(403,493,o),
(455,382,o),
(455,272,cs),
(455,178,o),
(417,7,o),
(254,7,cs),
(153,7,o),
(111,118,o),
(111,228,cs)
);
}
);
width = 560;
}
);
unicode = 54;
},
{
glyphname = seven;
kernLeft = "7";
kernRight = "7";
lastChange = "2026-01-02 22:31:58 +0000";
layers = (
{
layerId = m01;
shapes = (
{
closed = 1;
nodes = (
(137,569,l),
(152,569,l),
(186,625,o),
(232,652,o),
(277,652,cs),
(572,652,l),
(575,645,l),
(485,603,o),
(65,205,o),
(65,-22,c),
(160,12,l),
(160,333,o),
(569,629,o),
(677,684,c),
(667,700,l),
(209,700,l)
);
}
);
width = 550;
}
);
unicode = 55;
},
{
glyphname = eight;
kernLeft = "8";
kernRight = "8";
lastChange = "2026-01-02 22:20:27 +0000";
layers = (
{
layerId = m01;
shapes = (
{
closed = 1;
nodes = (
(389,-13,o),
(494,70,o),
(494,232,cs),
(494,402,o),
(205,436,o),
(205,555,cs),
(205,633,o),
(248,695,o),
(347,695,cs),
(412,695,o),
(473,663,o),
(473,581,cs),
(473,535,o),
(456,458,o),
(335,418,c),
(335,403,l),
(466,431,o),
(529,503,o),
(529,594,cs),
(529,655,o),
(466,713,o),
(358,713,cs),
(243,713,o),
(154,644,o),
(154,539,cs),
(154,352,o),
(436,333,o),
(436,168,cs),
(436,64,o),
(361,5,o),
(256,5,cs),
(158,5,o),
(86,66,o),
(81,158,cs),
(77,231,o),
(108,322,o),
(255,377,c),
(255,397,l),
(134,353,o),
(16,285,o),
(16,148,cs),
(16,91,o),
(71,-13,o),
(235,-13,cs)
);
}
);
width = 537;
}
);
unicode = 56;
},
{
glyphname = nine;
kernLeft = "9";
kernRight = "9";
lastChange = "2026-01-02 09:20:36 +0000";
layers = (
{
layerId = m01;
shapes = (
{
closed = 1;
nodes = (
(201,710,o),
(114,542,o),
(114,399,cs),
(114,269,o),
(231,190,o),
(318,190,cs),
(495,190,o),
(582,358,o),
(582,501,cs),
(582,631,o),
(475,710,o),
(388,710,cs)
);
},
{
closed = 1;
nodes = (
(478,693,o),
(520,582,o),
(520,472,cs),
(520,378,o),
(482,207,o),
(329,207,cs),
(228,207,o),
(176,318,o),
(176,428,cs),
(176,522,o),
(214,693,o),
(377,693,cs)
);
},
{
closed = 1;
nodes = (
(292,-30,o),
(582,190,o),
(582,501,c),
(539,419,o),
(516,254,o),
(425,222,c),
(440,213,l),
(393,148,o),
(265,-3,o),
(104,17,c),
(94,0,l)
);
}
);
width = 560;
}
);
unicode = 57;
},
{
glyphname = zero.001;
lastChange = "2026-01-02 21:49:11 +0000";
layers = (
{
layerId = m01;
shapes = (
{
closed = 1;
nodes = (
(491,-10,o),
(615,277,o),
(615,475,cs),
(615,633,o),
(541,710,o),
(414,710,cs),
(187,710,o),
(53,423,o),
(53,225,cs),
(53,67,o),
(127,-10,o),
(254,-10,cs)
);
},
{
closed = 1;
nodes = (
(158,13,o),
(127,140,o),
(127,265,cs),
(127,395,o),
(191,686,o),
(389,686,cs),
(510,686,o),
(541,570,o),
(541,445,cs),
(541,315,o),
(487,13,o),
(279,13,cs)
);
}
);
width = 597;
}
);
metricLeft = O;
metricRight = O;
},
{
glyphname = one.001;
layers = (
{
backgroundImage = {
angle = 90;
imagePath = "Images/one.001-Regular.tif";
pos = (4432,-2974);
scale = (1.3,1.3);
};
hints = (
{
name = _corner.rightSerif;
options = 1;
origin = (0,0);
scale = (1.25,0.7);
type = Corner;
},
{
name = _corner.leftSerif;
origin = (0,3);
scale = (1.25,0.7);
type = Corner;
}
);
layerId = m01;
shapes = (
{
closed = 1;
nodes = (
(98,0,l),
(353,700,l),
(289,700,l),
(34,0,l)
);
},
{
closed = 1;
nodes = (
(255,643,ls),
(216,578,o),
(151,540,o),
(78,540,c),
(92,489,l),
(151,493,o),
(232,562,o),
(269,632,cs),
(300,691,l),
(289,700,l)
);
}
);
width = 320;
}
);
},
{
glyphname = two.001;
lastChange = "2026-01-02 02:12:06 +0000";
layers = (
{
backgroundImage = {
angle = 90;
imagePath = "Images/one-Regular.tif";
locked = 1;
pos = (4012,-2964);
scale = (1.3,1.3);
};
layerId = m01;
shapes = (
{
closed = 1;
nodes = (
(493,131,l),
(478,131,l),
(444,75,o),
(406,60,o),
(361,60,cs),
(82,60,l),
(79,65,l),
(162,111,o),
(546,343,o),
(546,563,cs),
(546,648,o),
(495,710,o),
(377,710,cs),
(242,710,o),
(147,573,o),
(145,461,c),
(221,514,l),
(202,575,o),
(239,686,o),
(350,686,cs),
(448,686,o),
(485,628,o),
(485,543,cs),
(485,292,o),
(61,71,o),
(-47,16,c),
(-37,0,l),
(360,0,ls),
(398,0,o),
(417,0,o),
(429,0,c)
);
}
);
width = 550;
}
);
},
{
glyphname = three.001;
layers = (
{
backgroundImage = {
angle = 90;
imagePath = "Images/one-Regular.tif";
locked = 1;
pos = (3302,-2964);
scale = (1.3,1.3);
};
layerId = m01;
shapes = (
{
closed = 1;
nodes = (
(424,421,o),
(536,474,o),
(536,573,cs),
(536,658,o),
(485,710,o),
(377,710,cs),
(249,710,o),
(147,573,o),
(145,461,c),
(211,514,l),
(199,585,o),
(244,691,o),
(360,691,cs),
(448,691,o),
(488,649,o),
(488,563,cs),
(488,454,o),
(388,427,o),
(256,393,c),
(266,379,l)
);
},
{
closed = 1;
nodes = (
(315,398,l),
(378,389,o),
(459,330,o),
(459,231,cs),
(459,75,o),
(357,10,o),
(241,10,cs),
(110,10,o),
(53,151,o),
(115,243,c),
(21,175,l),
(21,75,o),
(121,-10,o),
(222,-10,cs),
(380,-10,o),
(508,101,o),
(508,257,cs),
(508,341,o),
(426,430,o),
(364,430,c)
);
}
);
width = 600;
}
);
},
{
glyphname = five.001;
lastChange = "2026-01-02 21:14:46 +0000";
layers = (
{
layerId = m01;
shapes = (
{
closed = 1;
nodes = (
(155,371,o),
(266,394,o),
(286,394,cs),
(350,394,o),
(424,339,o),
(424,233,cs),
(424,87,o),
(308,5,o),
(222,5,cs),
(137,5,o),
(69,69,o),
(68,152,cs),
(68,196,o),
(90,248,o),
(132,293,c),
(27,241,l),
(14,217,o),
(7,183,o),
(7,146,cs),
(7,58,o),
(102,-15,o),
(207,-15,cs),
(385,-15,o),
(498,101,o),
(498,257,cs),
(498,328,o),
(435,410,o),
(346,410,cs),
(280,410,o),
(198,401,o),
(141,376,c),
(144,368,l)
);
},
{
closed = 1;
nodes = (
(554,652,o),
(575,636,o),
(542,569,c),
(557,569,l),
(629,700,l),
(249,699,l),
(130,368,l),
(144,368,l),
(247,651,l),
(509,652,l)
);
}
);
width = 533;
}
);
},
{
glyphname = six.001;
layers = (
{
backgroundImage = {
angle = 90;
imagePath = "Images/one-Regular.tif";
locked = 1;
pos = (3952,-2199);
scale = (1.3,1.3);
};
layerId = m01;
shapes = (
{
closed = 1;
nodes = (
(420,-10,o),
(517,158,o),
(517,301,cs),
(517,461,o),
(390,510,o),
(323,510,cs),
(146,510,o),
(49,342,o),
(49,199,cs),
(49,39,o),
(166,-10,o),
(233,-10,cs)
);
},
{
closed = 1;
nodes = (
(163,20,o),
(101,128,o),
(101,238,cs),
(101,332,o),
(144,480,o),
(302,480,cs),
(393,480,o),
(465,372,o),
(465,262,cs),
(465,168,o),
(422,20,o),
(254,20,cs)
);
},
{
closed = 1;
nodes = (
(272,739,o),
(49,485,o),
(49,199,c),
(62,258,l),
(119,463,o),
(217,698,o),
(432,623,c),
(477,700,l)
);
}
);
width = 600;
}
);
},
{
glyphname = seven.001;
layers = (
{
layerId = m01;
shapes = (
{
closed = 1;
nodes = (
(165,569,l),
(180,569,l),
(214,625,o),
(260,652,o),
(305,652,cs),
(600,652,l),
(603,645,l),
(520,599,o),
(93,332,o),
(93,112,cs),
(93,31,o),
(163,-10,o),
(271,-10,c),
(200,9,o),
(174,62,o),
(174,127,cs),
(174,358,o),
(597,629,o),
(705,684,c),
(695,700,l),
(237,700,l)
);
}
);
width = 600;
}
);
},
{
glyphname = one.002;
layers = (
{
backgroundImage = {
angle = 90;
imagePath = "Images/one-Regular.tif";
locked = 1;
pos = (4492,-2974);
scale = (1.3,1.3);
};
hints = (
{
name = _corner.rightSerif;
options = 1;
origin = (0,0);
scale = (1.5,0.7);
type = Corner;
},
{
name = _corner.leftSerif;
origin = (0,12);
scale = (1.5,0.7);
type = Corner;
}
);
layerId = m01;
shapes = (
{
closed = 1;
nodes = (
(158,0,l),
(420,718,l),
(408,718,l),
(305,620,ls),
(273,589,o),
(215,588,o),
(180,600,c),
(158,555,l),
(217,544,o),
(264,556,o),
(314,613,c),
(317,613,l),
(94,0,l)
);
}
);
width = 394;
}
);
metricRight = I;
},
{
glyphname = three.002;
layers = (
{
backgroundImage = {
angle = 90;
imagePath = "Images/one-Regular.tif";
locked = 1;
pos = (3302,-2964);
scale = (1.3,1.3);
};
layerId = m01;
shapes = (
{
closed = 1;
nodes = (
(266,361,o),
(289,364,o),
(309,364,cs),
(373,364,o),
(462,319,o),
(462,203,cs),
(462,47,o),
(353,2,o),
(257,2,cs),
(116,2,o),
(83,151,o),
(155,263,c),
(61,195,l),
(31,95,o),
(113,-10,o),
(242,-10,cs),
(390,-10,o),
(515,71,o),
(515,227,cs),
(515,325,o),
(430,379,o),
(346,384,c),
(428,408,o),
(536,476,o),
(536,573,cs),
(536,658,o),
(485,710,o),
(377,710,cs),
(249,710,o),
(147,573,o),
(145,461,c),
(211,514,l),
(199,585,o),
(244,691,o),
(360,691,cs),
(448,691,o),
(488,649,o),
(488,563,cs),
(488,444,o),
(368,397,o),
(236,363,c),
(243,353,l)
);
}
);
width = 600;
}
);
},
{
glyphname = four.002;
lastChange = "2026-01-02 22:10:49 +0000";
layers = (
{
hints = (
{
name = _corner.rightSerif;
options = 1;
origin = (0,0);
scale = (1.5,0.7);
type = Corner;
},
{
name = _corner.leftSerif;
origin = (0,3);
scale = (1.5,0.7);
type = Corner;
}
);
layerId = m01;
shapes = (
{
closed = 1;
nodes = (
(350,0,l),
(605,700,l),
(535,700,l),
(280,0,l)
);
},
{
closed = 1;
nodes = (
(252,660,l),
(295,539,o),
(225,303,o),
(-2,225,c),
(-2,216,l),
(162,216,l),
(134,270,l),
(129,279,l),
(245,366,o),
(344,572,o),
(310,706,c)
);
},
{
closed = 1;
nodes = (
(-2,216,l),
(528,216,l),
(550,272,l),
(101,272,l)
);
}
);
width = 600;
}
);
},
{
glyphname = six.002;
layers = (
{
backgroundImage = {
angle = 90;
imagePath = "Images/one-Regular.tif";
locked = 1;
pos = (3952,-2199);
scale = (1.3,1.3);
};
layerId = m01;
shapes = (
{
closed = 1;
nodes = (
(410,-10,o),
(517,158,o),
(517,301,cs),
(517,461,o),
(410,510,o),
(333,510,cs),
(156,510,o),
(49,342,o),
(49,199,cs),
(49,39,o),
(146,-10,o),
(223,-10,cs)
);
},
{
closed = 1;
nodes = (
(153,20,o),
(101,128,o),
(101,238,cs),
(101,332,o),
(149,480,o),
(302,480,cs),
(403,480,o),
(465,372,o),
(465,262,cs),
(465,168,o),
(417,20,o),
(254,20,cs)
);
},
{
closed = 1;
nodes = (
(332,739,o),
(49,485,o),
(49,199,c),
(62,258,l),
(119,463,o),
(277,698,o),
(492,623,c),
(537,700,l)
);
}
);
width = 600;
}
);
},
{
glyphname = four.003;
lastChange = "2026-01-02 22:17:16 +0000";
layers = (
{
hints = (
{
name = _corner.rightSerif;
options = 1;
origin = (0,0);
scale = (1.5,0.7);
type = Corner;
},
{
name = _corner.leftSerif;
origin = (0,8);
scale = (1.5,0.7);
type = Corner;
}
);
layerId = m01;
shapes = (
{
closed = 1;
nodes = (
(320,0,l),
(523,526,l),
(518,528,l),
(394,407,l),
(397,400,ls),
(400,393,o),
(395,367,o),
(385,342,cs),
(250,0,l)
);
},
{
closed = 1;
nodes = (
(472,690,l),
(515,569,o),
(235,303,o),
(8,225,c),
(8,216,l),
(172,216,l),
(164,270,l),
(157,279,l),
(273,336,o),
(584,592,o),
(550,726,c)
);
},
{
closed = 1;
nodes = (
(8,216,l),
(508,216,l),
(530,272,l),
(111,272,l)
);
}
);
width = 570;
}
);
},
{
glyphname = five.003;
lastChange = "2026-01-02 21:33:35 +0000";
layers = (
{
layerId = m01;
shapes = (
{
closed = 1;
nodes = (
(155,379,o),
(206,434,o),
(286,434,cs),
(350,434,o),
(424,379,o),
(424,233,cs),
(424,87,o),
(308,5,o),
(222,5,cs),
(137,5,o),
(69,69,o),
(68,152,cs),
(68,196,o),
(90,248,o),
(132,293,c),
(27,241,l),
(14,217,o),
(7,183,o),
(7,146,cs),
(7,58,o),
(102,-15,o),
(207,-15,cs),
(385,-15,o),
(498,111,o),
(498,267,cs),
(498,378,o),
(432,450,o),
(316,450,cs),
(220,450,o),
(164,406,o),
(127,376,c),
(144,368,l)
);
},
{
closed = 1;
nodes = (
(514,652,o),
(535,636,o),
(502,569,c),
(517,569,l),
(589,700,l),
(279,699,l),
(127,376,l),
(168,399,l),
(158,410,l),
(277,651,l),
(469,652,l)
);
}
);
width = 533;
}
);
},
{
glyphname = six.003;
layers = (
{
backgroundImage = {
angle = 90;
imagePath = "Images/one-Regular.tif";
locked = 1;
pos = (3952,-2199);
scale = (1.3,1.3);
};
layerId = m01;
shapes = (
{
closed = 1;
nodes = (
(410,-10,o),
(517,158,o),
(517,301,cs),
(517,461,o),
(410,510,o),
(333,510,cs),
(156,510,o),
(49,342,o),
(49,199,cs),
(49,39,o),
(146,-10,o),
(223,-10,cs)
);
},
{
closed = 1;
nodes = (
(153,20,o),
(101,128,o),
(101,238,cs),
(101,332,o),
(149,480,o),
(302,480,cs),
(403,480,o),
(465,372,o),
(465,262,cs),
(465,168,o),
(417,20,o),
(254,20,cs)
);
},
{
closed = 1;
nodes = (
(332,739,o),
(49,485,o),
(49,199,c),
(101,238,l),
(101,321,o),
(124,395,o),
(161,458,cs),
(178,487,o),
(198,514,o),
(220,538,cs),
(277,598,o),
(336,638,o),
(415,637,cs),
(440,637,o),
(465,632,o),
(492,623,c),
(537,700,l)
);
}
);
width = 600;
}
);
},
{
glyphname = six.004;
kernLeft = "6";
kernRight = "6";
layers = (
{
backgroundImage = {
angle = 90;
imagePath = "Images/one-Regular.tif";
locked = 1;
pos = (3952,-2199);
scale = (1.3,1.3);
};
layerId = m01;
shapes = (
{
closed = 1;
nodes = (
(430,-10,o),
(517,158,o),
(517,301,cs),
(517,431,o),
(400,510,o),
(313,510,cs),
(136,510,o),
(49,342,o),
(49,199,cs),
(49,69,o),
(156,-10,o),
(243,-10,cs)
);
},
{
closed = 1;
nodes = (
(153,7,o),
(111,118,o),
(111,228,cs),
(111,322,o),
(149,493,o),
(302,493,cs),
(403,493,o),
(455,382,o),
(455,272,cs),
(455,178,o),
(417,7,o),
(254,7,cs)
);
},
{
closed = 1;
nodes = (
(339,730,o),
(49,510,o),
(49,199,c),
(92,281,o),
(115,446,o),
(206,478,c),
(191,487,l),
(238,552,o),
(366,703,o),
(527,683,c),
(537,700,l)
);
}
);
width = 560;
}
);
},
{
export = 0;
glyphname = _corner.leftSerif;
kernLeft = LS;
kernRight = LS;
lastChange = "2025-12-29 21:32:09 +0000";
layers = (
{
anchors = (
{
name = left;
pos = (75,14);
},
{
name = origin;
pos = (75,0);
},
{
name = right;
pos = (82,0);
}
);
layerId = m01;
shapes = (
{
closed = 0;
nodes = (
(75,96,l),
(75,46,o),
(58,18,o),
(0,15,c),
(0,0,l),
(85,0,l)
);
}
);
width = 75;
}
);
},
{
export = 0;
glyphname = _corner.rightSerif;
kernLeft = RS;
kernRight = RS;
lastChange = "2025-12-29 21:32:01 +0000";
layers = (
{
anchors = (
{
name = left;
pos = (-7,0);
},
{
name = origin;
},
{
name = right;
pos = (0,20);
}
);
layerId = m01;
shapes = (
{
closed = 0;
nodes = (
(-10,0,l),
(75,0,l),
(75,15,l),
(17,18,o),
(0,36,o),
(0,96,c)
);
}
);
width = 75;
}
);
},
